<svg xmlns="http://www.w3.org/2000/svg" viewBox="0 0 512 512" role="img" aria-label="Simply favicon">
  <path fill="#fff" d="M377 13 356 14 347 19 335 32 317 42 225 75 187 93 152 121 138 138 126 159 115 198 115 233 122 257 129 271 143 289 145 301 124 331 112 360 108 382 108 414 115 444 126 467 138 483 156 497 173 499 184 495 196 482 201 466 214 454 296 414 332 393 368 359 386 329 395 296 395 266 389 239 383 222 370 200 370 191 383 171 397 139 403 111 403 70 397 32 388 19Z"/>
  <path fill="#9ca3af" opacity="0.72" d="M142 286c38 31 91 30 143 4 38-19 71-51 98-91-3 26-13 52-32 75-30 36-84 59-144 91-34 18-55 55-42 108-36-22-54-93-23-187Z"/>
  <path fill="#fff" opacity="0.95" d="M116 230c28-40 67-64 118-83 49-18 98-34 143-93-2 54-37 81-87 101-56 22-121 36-174 75Z"/>
</svg>
