<svg xmlns="http://www.w3.org/2000/svg" viewBox="0 0 1200 750" role="img" aria-label="Cliente usando Simply en un cafe premium"><defs><linearGradient id="bg" x1="0" y1="0" x2="1" y2="1"><stop stop-color="#171a22"/><stop offset=".45" stop-color="#090b12"/><stop offset="1" stop-color="#0d1321"/></linearGradient><radialGradient id="w" cx="22%" cy="12%" r="55%"><stop stop-color="#d9c4a1" stop-opacity=".42"/><stop offset="1" stop-color="#000" stop-opacity="0"/></radialGradient><linearGradient id="phone" x1="0" y1="0" x2="1" y2="1"><stop stop-color="#2d3342"/><stop offset=".42" stop-color="#05070c"/><stop offset="1" stop-color="#1a2335"/></linearGradient><filter id="blur"><feGaussianBlur stdDeviation="18"/></filter><filter id="shadow"><feDropShadow dx="0" dy="34" stdDeviation="34" flood-color="#000" flood-opacity=".65"/></filter></defs><rect width="1200" height="750" rx="42" fill="url(#bg)"/><rect width="1200" height="750" rx="42" fill="url(#w)"/><g opacity=".45" filter="url(#blur)"><circle cx="90" cy="90" r="90" fill="#f2d7a5"/><circle cx="1020" cy="170" r="160" fill="#2563eb" opacity=".32"/><circle cx="760" cy="620" r="190" fill="#4f46e5" opacity=".18"/></g><path d="M0 556 C200 510 382 530 560 560 C780 596 950 554 1200 505 V750 H0Z" fill="#050505" opacity=".76"/><rect x="0" y="554" width="1200" height="196" fill="#0b0907" opacity=".6"/><ellipse cx="310" cy="585" rx="210" ry="48" fill="#000" opacity=".46"/><rect x="128" y="486" width="360" height="80" rx="18" fill="#6b4a2f"/><rect x="128" y="486" width="360" height="20" rx="10" fill="#9a6a44" opacity=".65"/><g transform="translate(170 350)" filter="url(#shadow)"><path d="M116 30 C185 8 278 48 292 132 C308 224 244 308 154 316 C63 324 -2 255 8 168 C16 98 54 50 116 30Z" fill="#202633"/><path d="M118 72 C172 54 244 82 254 146 C266 214 218 276 151 282 C81 288 34 237 41 171 C47 117 73 87 118 72Z" fill="#c49a76"/><path d="M64 305 C116 250 202 252 260 315 L285 750 H25Z" fill="#111827"/><path d="M98 342 C143 366 188 366 231 340 L255 750 H70Z" fill="#0b1020" opacity=".9"/></g><g transform="translate(665 175) rotate(-7)" filter="url(#shadow)"><rect width="245" height="455" rx="42" fill="url(#phone)"/><rect x="15" y="18" width="215" height="419" rx="34" fill="#071120" stroke="#1e3a8a" stroke-opacity=".45"/><rect x="83" y="30" width="82" height="15" rx="8" fill="#02040a"/><text x="36" y="95" fill="#fff" font-family="Inter,Arial" font-size="23" font-weight="700">Simply</text><text x="36" y="125" fill="#8bb8ff" font-family="Inter,Arial" font-size="13">saldo disponible</text><text x="36" y="176" fill="#fff" font-family="Inter,Arial" font-size="36" font-weight="800">$125.680</text><rect x="34" y="215" width="177" height="90" rx="24" fill="#2563eb" opacity=".28"/><text x="55" y="251" fill="#dbeafe" font-family="Inter,Arial" font-size="15">Pago QR</text><text x="55" y="280" fill="#fff" font-family="Inter,Arial" font-size="22" font-weight="700">Aprobado</text><rect x="34" y="326" width="177" height="46" rx="17" fill="#fff" opacity=".06"/><text x="55" y="355" fill="#b8c7df" font-family="Inter,Arial" font-size="14">Cashback +1%*</text></g><g transform="translate(760 515)"><ellipse cx="0" cy="75" rx="86" ry="20" fill="#000" opacity=".38"/><path d="M-62 26 h124 l-18 65 h-88Z" fill="#ded5c9"/><ellipse cx="0" cy="26" rx="62" ry="16" fill="#f1e8dc"/><ellipse cx="0" cy="20" rx="42" ry="10" fill="#6b3f22"/></g><g transform="translate(760 570)"><rect x="190" y="-74" width="132" height="86" rx="18" fill="#111827" stroke="#334155"/><text x="210" y="-36" fill="#e5e7eb" font-family="Inter,Arial" font-size="20" font-style="italic" font-weight="800">VISA</text><text x="210" y="-12" fill="#93c5fd" font-family="Inter,Arial" font-size="12">simply</text></g><rect x="1" y="1" width="1198" height="748" rx="42" fill="none" stroke="#ffffff" stroke-opacity=".14"/><rect y="530" width="1200" height="220" rx="42" fill="url(#bg)" opacity=".28"/></svg>