<svg xmlns="http://www.w3.org/2000/svg" viewBox="0 0 1200 750" role="img" aria-label="Simply en Android iOS y Web"><defs><linearGradient id="bg" x1="0" y1="0" x2="1" y2="1"><stop stop-color="#070b14"/><stop offset=".45" stop-color="#020305"/><stop offset="1" stop-color="#101827"/></linearGradient><radialGradient id="g" cx="62%" cy="16%" r="60%"><stop stop-color="#2563eb" stop-opacity=".36"/><stop offset="1" stop-color="#000" stop-opacity="0"/></radialGradient><linearGradient id="screen" x1="0" y1="0" x2="1" y2="1"><stop stop-color="#172554"/><stop offset=".5" stop-color="#071120"/><stop offset="1" stop-color="#020617"/></linearGradient><filter id="shadow"><feDropShadow dx="0" dy="34" stdDeviation="35" flood-color="#000" flood-opacity=".68"/></filter><filter id="blur"><feGaussianBlur stdDeviation="18"/></filter></defs><rect width="1200" height="750" rx="42" fill="url(#bg)"/><rect width="1200" height="750" rx="42" fill="url(#g)"/><g opacity=".35" filter="url(#blur)"><circle cx="990" cy="135" r="170" fill="#60a5fa"/><circle cx="230" cy="600" r="220" fill="#1d4ed8" opacity=".32"/></g><path d="M0 590 C230 540 430 565 620 594 C850 630 1015 560 1200 520 V750 H0Z" fill="#030303" opacity=".76"/><g transform="translate(105 160)" filter="url(#shadow)"><rect width="610" height="380" rx="34" fill="#101827"/><rect x="28" y="28" width="554" height="295" rx="20" fill="url(#screen)" stroke="#1d4ed8" stroke-opacity=".38"/><text x="64" y="82" fill="#fff" font-family="Inter,Arial" font-size="28" font-weight="700">Simply Web</text><text x="64" y="112" fill="#93c5fd" font-family="Inter,Arial" font-size="16">Dashboard responsive</text><rect x="64" y="150" width="150" height="86" rx="20" fill="#fff" opacity=".055"/><text x="86" y="184" fill="#94a3b8" font-family="Inter,Arial" font-size="14">Saldo</text><text x="86" y="214" fill="#fff" font-family="Inter,Arial" font-size="28" font-weight="800">$125k</text><rect x="240" y="150" width="150" height="86" rx="20" fill="#2563eb" opacity=".20"/><text x="262" y="184" fill="#bfdbfe" font-family="Inter,Arial" font-size="14">AI</text><text x="262" y="214" fill="#fff" font-family="Inter,Arial" font-size="28" font-weight="800">Activo</text><rect x="416" y="150" width="126" height="86" rx="20" fill="#fff" opacity=".055"/><text x="438" y="184" fill="#94a3b8" font-family="Inter,Arial" font-size="14">Tarjeta</text><text x="438" y="214" fill="#fff" font-family="Inter,Arial" font-size="22" font-weight="800">Visa</text><path d="M72 285 C150 230 218 290 300 238 C390 180 452 238 538 190" fill="none" stroke="#93c5fd" stroke-width="6" stroke-linecap="round"/><rect x="214" y="340" width="185" height="28" rx="14" fill="#0b1020"/></g><g transform="translate(710 130) rotate(5)" filter="url(#shadow)"><rect width="190" height="388" rx="40" fill="#0a0f1a"/><rect x="14" y="19" width="162" height="350" rx="30" fill="url(#screen)" stroke="#1d4ed8" stroke-opacity=".35"/><rect x="64" y="30" width="62" height="12" rx="6" fill="#020617"/><text x="38" y="91" fill="#fff" font-family="Inter,Arial" font-size="21" font-weight="700">iOS</text><text x="38" y="119" fill="#93c5fd" font-family="Inter,Arial" font-size="13">Simply</text><rect x="34" y="154" width="122" height="78" rx="22" fill="#2563eb" opacity=".24"/><text x="52" y="188" fill="#fff" font-family="Inter,Arial" font-size="20" font-weight="800">$42.900</text><rect x="34" y="260" width="122" height="36" rx="14" fill="#fff" opacity=".065"/><text x="54" y="283" fill="#cbd5e1" font-family="Inter,Arial" font-size="12">Rewards +1%</text></g><g transform="translate(900 220) rotate(-6)" filter="url(#shadow)"><rect width="170" height="338" rx="36" fill="#0a0f1a"/><rect x="13" y="18" width="144" height="304" rx="28" fill="url(#screen)" stroke="#1d4ed8" stroke-opacity=".35"/><rect x="58" y="29" width="54" height="10" rx="5" fill="#020617"/><text x="34" y="82" fill="#fff" font-family="Inter,Arial" font-size="20" font-weight="700">Android</text><rect x="31" y="118" width="108" height="108" rx="22" fill="#f8fafc"/><g fill="#020617"><rect x="48" y="136" width="28" height="28"/><rect x="96" y="136" width="28" height="28"/><rect x="48" y="184" width="28" height="28"/><rect x="88" y="180" width="18" height="18"/><rect x="111" y="191" width="13" height="13"/></g><text x="40" y="266" fill="#93c5fd" font-family="Inter,Arial" font-size="13">Pago QR</text><text x="40" y="292" fill="#fff" font-family="Inter,Arial" font-size="18" font-weight="800">OK</text></g><g transform="translate(170 585)"><rect width="430" height="75" rx="25" fill="#0b1220" stroke="#1e3a8a" stroke-opacity=".35"/><text x="28" y="31" fill="#fff" font-family="Inter,Arial" font-size="20" font-weight="700">Android · iOS · Web</text><text x="28" y="55" fill="#94a3b8" font-family="Inter,Arial" font-size="14">Una experiencia continua entre dispositivos.</text></g><rect x="1" y="1" width="1198" height="748" rx="42" fill="none" stroke="#fff" stroke-opacity=".13"/></svg>