<svg xmlns="http://www.w3.org/2000/svg" viewBox="0 0 820 1180" role="img" aria-label="Simply app home mockup">
  <defs>
    <linearGradient id="metal" x1="110" y1="20" x2="700" y2="1160" gradientUnits="userSpaceOnUse"><stop stop-color="#36383f"/><stop offset=".35" stop-color="#0c0d12"/><stop offset="1" stop-color="#282b33"/></linearGradient>
    <linearGradient id="screen" x1="160" y1="90" x2="650" y2="1060" gradientUnits="userSpaceOnUse"><stop stop-color="#1f3156"/><stop offset=".35" stop-color="#091225"/><stop offset="1" stop-color="#03050b"/></linearGradient>
    <linearGradient id="blue" x1="0" y1="0" x2="1" y2="1"><stop stop-color="#5aa2ff"/><stop offset="1" stop-color="#1744d8"/></linearGradient>
    <filter id="shadow" x="-20%" y="-20%" width="140%" height="140%"><feDropShadow dx="0" dy="48" stdDeviation="38" flood-color="#000" flood-opacity=".65"/><feDropShadow dx="0" dy="0" stdDeviation="28" flood-color="#2f7cff" flood-opacity=".22"/></filter>
  </defs>
  <g filter="url(#shadow)">
    <rect x="158" y="36" width="504" height="1108" rx="88" fill="url(#metal)"/>
    <rect x="179" y="58" width="462" height="1064" rx="70" fill="url(#screen)" stroke="#1f2a3e"/>
    <rect x="315" y="75" width="190" height="38" rx="19" fill="#030409"/>
    <text x="220" y="151" fill="#d8e6ff" font-family="Inter,Arial" font-size="24">9:41</text><text x="548" y="151" fill="#d8e6ff" font-family="Inter,Arial" font-size="22">●●●</text>
    <text x="222" y="225" fill="#fff" font-family="Inter,Arial" font-size="31" font-weight="600">Hola, Martín</text><text x="222" y="260" fill="#6ca8ff" font-family="Inter,Arial" font-size="20">AI Advisor activo</text>
    <rect x="220" y="310" width="380" height="245" rx="42" fill="rgba(255,255,255,.075)" stroke="rgba(255,255,255,.12)"/>
    <text x="255" y="367" fill="#8d99ad" font-family="Inter,Arial" font-size="22">Saldo disponible</text><text x="255" y="430" fill="#fff" font-family="Inter,Arial" font-size="55" font-weight="700">$125.680</text><text x="255" y="467" fill="#76839a" font-family="Inter,Arial" font-size="19">ARS · Cuenta principal</text>
    <rect x="255" y="493" width="135" height="45" rx="18" fill="url(#blue)"/><text x="294" y="523" fill="#fff" font-family="Inter,Arial" font-size="19" font-weight="600">Enviar</text><rect x="410" y="493" width="135" height="45" rx="18" fill="rgba(255,255,255,.04)" stroke="#273249"/><text x="447" y="523" fill="#fff" font-family="Inter,Arial" font-size="19" font-weight="600">Recibir</text>
    <rect x="220" y="585" width="380" height="80" rx="28" fill="rgba(47,124,255,.15)" stroke="rgba(96,165,250,.28)"/><text x="250" y="622" fill="#d6e7ff" font-family="Inter,Arial" font-size="18">No usaste una suscripción</text><text x="250" y="648" fill="#8fbaff" font-family="Inter,Arial" font-size="18">en 3 meses. ¿Revisamos?</text>
    <text x="220" y="724" fill="#fff" font-family="Inter,Arial" font-size="24" font-weight="700">Movimientos</text><text x="525" y="724" fill="#687184" font-family="Inter,Arial" font-size="17">Ver todo</text>
    <g font-family="Inter,Arial"><rect x="220" y="760" width="380" height="76" rx="24" fill="rgba(255,255,255,.055)"/><text x="250" y="792" fill="#fff" font-size="19" font-weight="700">Netflix</text><text x="250" y="819" fill="#758096" font-size="16">Suscripción</text><text x="500" y="805" fill="#e8eefc" font-size="18">-$4.299</text><rect x="220" y="854" width="380" height="76" rx="24" fill="rgba(255,255,255,.055)"/><text x="250" y="886" fill="#fff" font-size="19" font-weight="700">Cashback</text><text x="250" y="913" fill="#758096" font-size="16">Rewards</text><text x="508" y="899" fill="#e8eefc" font-size="18">+1%</text><rect x="220" y="948" width="380" height="76" rx="24" fill="rgba(255,255,255,.055)"/><text x="250" y="980" fill="#fff" font-size="19" font-weight="700">Fondos comunes</text><text x="250" y="1007" fill="#758096" font-size="16">Renta diaria*</text><text x="500" y="993" fill="#e8eefc" font-size="18">Activo</text></g>
  </g>
</svg>