<svg xmlns="http://www.w3.org/2000/svg" viewBox="0 0 820 1180" role="img" aria-label="Simply cards mockup">
  <defs><linearGradient id="m" x1="120" y1="20" x2="690" y2="1160"><stop stop-color="#3a3d45"/><stop offset=".45" stop-color="#090a0f"/><stop offset="1" stop-color="#242832"/></linearGradient><linearGradient id="s" x1="160" y1="80" x2="660" y2="1100"><stop stop-color="#23385f"/><stop offset=".45" stop-color="#081021"/><stop offset="1" stop-color="#03050a"/></linearGradient><linearGradient id="blue" x1="0" y1="0" x2="1" y2="1"><stop stop-color="#65b2ff"/><stop offset="1" stop-color="#1844d8"/></linearGradient><filter id="sh" x="-20%" y="-20%" width="140%" height="140%"><feDropShadow dx="0" dy="48" stdDeviation="38" flood-color="#000" flood-opacity=".65"/><feDropShadow dx="0" dy="0" stdDeviation="28" flood-color="#2f7cff" flood-opacity=".22"/></filter></defs>
  <g filter="url(#sh)"><rect x="158" y="36" width="504" height="1108" rx="88" fill="url(#m)"/><rect x="179" y="58" width="462" height="1064" rx="70" fill="url(#s)" stroke="#1f2a3e"/><rect x="315" y="75" width="190" height="38" rx="19" fill="#030409"/><text x="222" y="152" fill="#d8e6ff" font-family="Inter,Arial" font-size="24">9:41</text><text x="222" y="230" fill="#fff" font-family="Inter,Arial" font-size="34" font-weight="700">Tarjetas</text><text x="222" y="266" fill="#7daeff" font-family="Inter,Arial" font-size="20">Control total desde Simply</text>
    <g transform="translate(220 320)"><rect width="380" height="235" rx="34" fill="url(#blue)"/><circle cx="310" cy="62" r="34" fill="rgba(255,255,255,.22)"/><circle cx="342" cy="62" r="34" fill="rgba(255,255,255,.14)"/><text x="30" y="62" fill="#fff" font-family="Inter,Arial" font-size="31" font-weight="700">simply</text><text x="30" y="130" fill="#dfeaff" font-family="Inter,Arial" font-size="25" letter-spacing="5">••••  4829</text><text x="30" y="195" fill="#dfeaff" font-family="Inter,Arial" font-size="18">MARTÍN G.</text><text x="278" y="195" fill="#fff" font-family="Inter,Arial" font-size="28" font-style="italic" font-weight="800">VISA</text></g>
    <rect x="220" y="590" width="380" height="78" rx="26" fill="rgba(255,255,255,.06)"/><text x="250" y="624" fill="#fff" font-family="Inter,Arial" font-size="20" font-weight="700">Tarjeta virtual</text><text x="250" y="651" fill="#7f8aa0" font-family="Inter,Arial" font-size="16">Activa para compras online</text><text x="525" y="638" fill="#89b9ff" font-family="Inter,Arial" font-size="17">ON</text>
    <rect x="220" y="692" width="380" height="78" rx="26" fill="rgba(255,255,255,.06)"/><text x="250" y="726" fill="#fff" font-family="Inter,Arial" font-size="20" font-weight="700">Tarjeta de un uso</text><text x="250" y="753" fill="#7f8aa0" font-family="Inter,Arial" font-size="16">Muere después de pagar</text><text x="497" y="740" fill="#89b9ff" font-family="Inter,Arial" font-size="17">Crear</text>
    <rect x="220" y="810" width="380" height="176" rx="34" fill="rgba(255,255,255,.045)" stroke="rgba(255,255,255,.08)"/><text x="250" y="855" fill="#fff" font-family="Inter,Arial" font-size="22" font-weight="700">Límites y seguridad</text><text x="250" y="895" fill="#8a95aa" font-family="Inter,Arial" font-size="17">Compras online</text><rect x="250" y="920" width="295" height="12" rx="6" fill="#172238"/><rect x="250" y="920" width="210" height="12" rx="6" fill="url(#blue)"/><text x="250" y="965" fill="#8a95aa" font-family="Inter,Arial" font-size="17">Alertas AI activas</text>
  </g>
</svg>