<svg xmlns="http://www.w3.org/2000/svg" viewBox="0 0 820 1180" role="img" aria-label="Simply onboarding mockup">
  <defs><linearGradient id="m" x1="120" y1="20" x2="690" y2="1160"><stop stop-color="#3a3d45"/><stop offset=".45" stop-color="#090a0f"/><stop offset="1" stop-color="#242832"/></linearGradient><linearGradient id="s" x1="160" y1="80" x2="660" y2="1100"><stop stop-color="#22375f"/><stop offset=".45" stop-color="#081021"/><stop offset="1" stop-color="#020409"/></linearGradient><linearGradient id="blue" x1="0" y1="0" x2="1" y2="1"><stop stop-color="#6ab8ff"/><stop offset="1" stop-color="#1744d8"/></linearGradient><linearGradient id="silver" x1="290" y1="210" x2="520" y2="470"><stop stop-color="#fff"/><stop offset=".55" stop-color="#d7deea"/><stop offset="1" stop-color="#fff"/></linearGradient><filter id="sh" x="-20%" y="-20%" width="140%" height="140%"><feDropShadow dx="0" dy="48" stdDeviation="38" flood-color="#000" flood-opacity=".65"/><feDropShadow dx="0" dy="0" stdDeviation="28" flood-color="#2f7cff" flood-opacity=".22"/></filter></defs>
  <g filter="url(#sh)"><rect x="158" y="36" width="504" height="1108" rx="88" fill="url(#m)"/><rect x="179" y="58" width="462" height="1064" rx="70" fill="url(#s)" stroke="#1f2a3e"/><rect x="315" y="75" width="190" height="38" rx="19" fill="#030409"/><text x="222" y="152" fill="#d8e6ff" font-family="Inter,Arial" font-size="24">9:41</text>
    <g transform="translate(270 230) scale(1.12)"><path fill="url(#silver)" d="M126 15c-42-11-89-4-125 22-23 16-41 38-54 64 26 14 53 12 76-6 24-18 51-26 84-23-50 18-85 48-102 94 33 16 66 6 86-24 23-33 54-56 95-69-42-17-84-14-120 6 18-25 38-46 60-64Z"/><path fill="#9aa5b8" opacity=".72" d="M52 166c30 15 60 10 80-11 14-14 25-31 47-48-43 11-74 33-91 66-14 6-25 3-36-7Z"/></g>
    <text x="255" y="480" fill="#fff" font-family="Inter,Arial" font-size="54" font-weight="700" letter-spacing="2">simply</text><text x="228" y="540" fill="#8ca8d1" font-family="Inter,Arial" font-size="22">Finanzas simples, AI-first</text>
    <rect x="235" y="610" width="350" height="70" rx="25" fill="url(#blue)"/><text x="330" y="654" fill="#fff" font-family="Inter,Arial" font-size="22" font-weight="700">Crear cuenta</text>
    <rect x="235" y="705" width="350" height="70" rx="25" fill="rgba(255,255,255,.05)" stroke="rgba(255,255,255,.12)"/><text x="334" y="749" fill="#fff" font-family="Inter,Arial" font-size="22" font-weight="700">Ingresar</text>
    <g font-family="Inter,Arial"><rect x="220" y="830" width="380" height="74" rx="24" fill="rgba(255,255,255,.055)"/><text x="250" y="864" fill="#fff" font-size="20" font-weight="700">KYC seguro</text><text x="250" y="890" fill="#7f8aa0" font-size="16">Validación inteligente</text><rect x="220" y="925" width="380" height="74" rx="24" fill="rgba(255,255,255,.055)"/><text x="250" y="959" fill="#fff" font-size="20" font-weight="700">Android · iOS · Web</text><text x="250" y="985" fill="#7f8aa0" font-size="16">Continuidad entre dispositivos</text></g>
  </g>
</svg>