<svg xmlns="http://www.w3.org/2000/svg" viewBox="0 0 820 1180" role="img" aria-label="Simply analytics mockup">
  <defs><linearGradient id="m" x1="120" y1="20" x2="690" y2="1160"><stop stop-color="#3a3d45"/><stop offset=".45" stop-color="#090a0f"/><stop offset="1" stop-color="#242832"/></linearGradient><linearGradient id="s" x1="160" y1="80" x2="660" y2="1100"><stop stop-color="#223158"/><stop offset=".45" stop-color="#081021"/><stop offset="1" stop-color="#020409"/></linearGradient><linearGradient id="blue" x1="0" y1="0" x2="1" y2="1"><stop stop-color="#72c2ff"/><stop offset="1" stop-color="#2046e8"/></linearGradient><filter id="sh" x="-20%" y="-20%" width="140%" height="140%"><feDropShadow dx="0" dy="48" stdDeviation="38" flood-color="#000" flood-opacity=".65"/><feDropShadow dx="0" dy="0" stdDeviation="28" flood-color="#2f7cff" flood-opacity=".22"/></filter></defs>
  <g filter="url(#sh)"><rect x="158" y="36" width="504" height="1108" rx="88" fill="url(#m)"/><rect x="179" y="58" width="462" height="1064" rx="70" fill="url(#s)" stroke="#1f2a3e"/><rect x="315" y="75" width="190" height="38" rx="19" fill="#030409"/><text x="222" y="152" fill="#d8e6ff" font-family="Inter,Arial" font-size="24">9:41</text><text x="222" y="230" fill="#fff" font-family="Inter,Arial" font-size="34" font-weight="700">AI Insights</text><text x="222" y="266" fill="#7daeff" font-family="Inter,Arial" font-size="20">Riesgo · gastos · señales</text>
    <rect x="220" y="315" width="380" height="170" rx="36" fill="rgba(255,255,255,.06)" stroke="rgba(255,255,255,.1)"/><text x="252" y="362" fill="#8ea0bd" font-family="Inter,Arial" font-size="20">AI Risk Score</text><text x="252" y="430" fill="#65b2ff" font-family="Inter,Arial" font-size="62" font-weight="800">98.7%</text><rect x="477" y="373" width="86" height="36" rx="18" fill="rgba(47,124,255,.17)" stroke="rgba(96,165,250,.28)"/><text x="498" y="397" fill="#a9ccff" font-family="Inter,Arial" font-size="15">bajo</text>
    <rect x="220" y="525" width="380" height="245" rx="36" fill="rgba(255,255,255,.045)" stroke="rgba(255,255,255,.08)"/><text x="252" y="570" fill="#fff" font-family="Inter,Arial" font-size="22" font-weight="700">Flujo mensual</text><g fill="url(#blue)"><rect x="255" y="690" width="32" height="46" rx="10"/><rect x="305" y="642" width="32" height="94" rx="10"/><rect x="355" y="660" width="32" height="76" rx="10"/><rect x="405" y="610" width="32" height="126" rx="10"/><rect x="455" y="632" width="32" height="104" rx="10"/><rect x="505" y="590" width="32" height="146" rx="10"/></g><path d="M255 650 C330 570 405 610 535 545" fill="none" stroke="#9ec9ff" stroke-width="5" stroke-linecap="round"/>
    <rect x="220" y="805" width="380" height="78" rx="26" fill="rgba(47,124,255,.12)" stroke="rgba(96,165,250,.24)"/><text x="250" y="839" fill="#fff" font-family="Inter,Arial" font-size="20" font-weight="700">Suscripción inactiva</text><text x="250" y="865" fill="#8fbaff" font-family="Inter,Arial" font-size="16">Detectada hace 3 meses</text><text x="516" y="853" fill="#fff" font-family="Inter,Arial" font-size="16">AI</text>
    <rect x="220" y="906" width="380" height="78" rx="26" fill="rgba(255,255,255,.055)"/><text x="250" y="940" fill="#fff" font-family="Inter,Arial" font-size="20" font-weight="700">Cashflow</text><text x="250" y="966" fill="#7f8aa0" font-family="Inter,Arial" font-size="16">Proyección estable</text><text x="503" y="953" fill="#89b9ff" font-family="Inter,Arial" font-size="17">+12%</text>
  </g>
</svg>