<svg xmlns="http://www.w3.org/2000/svg" viewBox="0 0 128 128" role="img" aria-label="Simply favicon">
  <rect width="128" height="128" rx="30" fill="#050505"/>
  <rect x="1" y="1" width="126" height="126" rx="29" fill="none" stroke="#1f2937" stroke-width="2"/>
  <path d="M84 22c-20-5-42-2-59 10-10 7-18 17-24 29 12 7 25 6 36-3 11-8 24-12 39-11-31 11-52 30-63 58 20 9 40 3 52-15 14-20 34-34 59-42-25-10-51-8-73 4 11-15 22-24 33-30Z" transform="translate(10 0) scale(.86)" fill="#fff"/>
  <path d="M39 91c13 7 27 4 36-6 7-7 12-15 23-23-21 5-36 16-45 32-6 3-10 2-14-3Z" fill="#9ca3af" opacity=".82"/>
</svg>
