<svg xmlns="http://www.w3.org/2000/svg" viewBox="0 0 512 512" role="img" aria-label="Simply favicon">
  <defs>
    <linearGradient id="silver" x1="90" y1="40" x2="410" y2="470" gradientUnits="userSpaceOnUse">
      <stop offset="0" stop-color="#ffffff"/>
      <stop offset="0.42" stop-color="#f4f6fb"/>
      <stop offset="0.72" stop-color="#bcc5d6"/>
      <stop offset="1" stop-color="#ffffff"/>
    </linearGradient>
    <linearGradient id="shade" x1="110" y1="80" x2="390" y2="430" gradientUnits="userSpaceOnUse">
      <stop offset="0" stop-color="#d8deea"/>
      <stop offset="1" stop-color="#737e94"/>
    </linearGradient>
    <filter id="soft" x="-30%" y="-30%" width="160%" height="160%">
      <feDropShadow dx="0" dy="26" stdDeviation="28" flood-color="#000000" flood-opacity="0.45"/>
      <feDropShadow dx="0" dy="0" stdDeviation="16" flood-color="#78a8ff" flood-opacity="0.18"/>
    </filter>
  </defs>
  <g filter="url(#soft)">
    <path fill="url(#silver)" d="M373 70c-64-17-135-5-190 34-34 24-61 57-80 97 39 21 81 18 115-8 36-27 77-39 127-34-76 27-128 72-154 141 49 23 99 8 129-36 34-50 82-84 144-104-63-25-126-21-180 8 27-38 57-69 89-98Z"/>
    <path fill="url(#shade)" opacity=".78" d="M139 311c44 22 89 15 119-16 21-21 37-47 70-72-64 17-111 50-137 99-20 9-36 5-52-11Z"/>
    <path fill="#ffffff" opacity=".72" d="M103 201c40 21 79 18 114-8 31-23 66-35 107-35-54-16-107-7-154 28-18 14-38 19-67 15Z"/>
  </g>
</svg>
