<svg xmlns="http://www.w3.org/2000/svg" viewBox="0 0 1200 750" role="img" aria-label="Pago con tarjeta Visa Simply y QR"><defs><linearGradient id="bg" x1="0" y1="0" x2="1" y2="1"><stop stop-color="#0b1020"/><stop offset=".42" stop-color="#050505"/><stop offset="1" stop-color="#111827"/></linearGradient><radialGradient id="blue" cx="72%" cy="18%" r="58%"><stop stop-color="#2563eb" stop-opacity=".34"/><stop offset="1" stop-color="#000" stop-opacity="0"/></radialGradient><linearGradient id="card" x1="0" y1="0" x2="1" y2="1"><stop stop-color="#f7f9ff"/><stop offset=".44" stop-color="#dbe7ff"/><stop offset="1" stop-color="#9db5e8"/></linearGradient><filter id="shadow"><feDropShadow dx="0" dy="34" stdDeviation="34" flood-color="#000" flood-opacity=".64"/></filter><filter id="blur"><feGaussianBlur stdDeviation="16"/></filter></defs><rect width="1200" height="750" rx="42" fill="url(#bg)"/><rect width="1200" height="750" rx="42" fill="url(#blue)"/><g opacity=".46" filter="url(#blur)"><circle cx="970" cy="125" r="145" fill="#60a5fa"/><circle cx="200" cy="600" r="210" fill="#1d4ed8" opacity=".30"/><circle cx="620" cy="180" r="90" fill="#fff" opacity=".10"/></g><path d="M0 575 C220 530 410 555 610 590 C835 630 990 560 1200 520 V750 H0Z" fill="#030303" opacity=".78"/><g filter="url(#shadow)"><rect x="135" y="170" width="475" height="300" rx="42" fill="url(#card)" transform="rotate(-8 372 320)"/><text x="198" y="250" fill="#0f172a" font-family="Inter,Arial" font-size="45" font-weight="700" transform="rotate(-8 198 250)">simply</text><text x="485" y="238" fill="#0f172a" font-family="Inter,Arial" font-size="38" font-style="italic" font-weight="900" transform="rotate(-8 485 238)">VISA</text><text x="190" y="360" fill="#1e3a8a" font-family="Inter,Arial" font-size="36" letter-spacing="8" transform="rotate(-8 190 360)">•••• 4829</text><text x="194" y="425" fill="#334155" font-family="Inter,Arial" font-size="20" transform="rotate(-8 194 425)">SIMPLY STANDARD</text></g><g transform="translate(745 155)" filter="url(#shadow)"><rect width="310" height="430" rx="46" fill="#05070d"/><rect x="20" y="24" width="270" height="382" rx="34" fill="#0b1220" stroke="#1d4ed8" stroke-opacity=".45"/><text x="50" y="88" fill="#fff" font-family="Inter,Arial" font-size="24" font-weight="700">Pagar con QR</text><text x="50" y="120" fill="#93c5fd" font-family="Inter,Arial" font-size="15">Simply Pay</text><rect x="74" y="155" width="164" height="164" rx="22" fill="#f8fafc"/><g fill="#020617"><rect x="95" y="176" width="42" height="42"/><rect x="174" y="176" width="42" height="42"/><rect x="95" y="255" width="42" height="42"/><rect x="150" y="235" width="21" height="21"/><rect x="185" y="255" width="31" height="31"/><rect x="150" y="181" width="15" height="15"/><rect x="118" y="231" width="17" height="17"/></g><rect x="50" y="345" width="210" height="44" rx="17" fill="#2563eb"/><text x="93" y="374" fill="#fff" font-family="Inter,Arial" font-size="16" font-weight="700">Confirmar pago</text></g><g transform="translate(135 555)"><rect width="475" height="92" rx="28" fill="#0b1220" stroke="#1e3a8a" stroke-opacity=".35"/><text x="32" y="38" fill="#fff" font-family="Inter,Arial" font-size="24" font-weight="700">Tarjeta, QR y seguridad</text><text x="32" y="68" fill="#94a3b8" font-family="Inter,Arial" font-size="16">Controlá pagos, límites y alertas desde una experiencia premium.</text></g><rect x="1" y="1" width="1198" height="748" rx="42" fill="none" stroke="#fff" stroke-opacity=".13"/></svg>