<svg xmlns="http://www.w3.org/2000/svg" viewBox="0 0 1200 750" role="img" aria-label="Analitica empresarial Simply"><defs><linearGradient id="bg" x1="0" y1="0" x2="1" y2="1"><stop stop-color="#05070d"/><stop offset=".5" stop-color="#0a1020"/><stop offset="1" stop-color="#030303"/></linearGradient><radialGradient id="glow" cx="28%" cy="18%" r="62%"><stop stop-color="#2563eb" stop-opacity=".36"/><stop offset="1" stop-color="#000" stop-opacity="0"/></radialGradient><linearGradient id="panel" x1="0" y1="0" x2="1" y2="1"><stop stop-color="#101827"/><stop offset="1" stop-color="#05070d"/></linearGradient><filter id="shadow"><feDropShadow dx="0" dy="35" stdDeviation="36" flood-color="#000" flood-opacity=".66"/></filter><filter id="blur"><feGaussianBlur stdDeviation="18"/></filter></defs><rect width="1200" height="750" rx="42" fill="url(#bg)"/><rect width="1200" height="750" rx="42" fill="url(#glow)"/><g filter="url(#blur)" opacity=".38"><circle cx="250" cy="130" r="150" fill="#60a5fa"/><circle cx="920" cy="610" r="230" fill="#1d4ed8" opacity=".32"/></g><g transform="translate(120 105)" filter="url(#shadow)"><rect width="730" height="485" rx="38" fill="url(#panel)" stroke="#1e3a8a" stroke-opacity=".38"/><rect x="26" y="24" width="678" height="54" rx="18" fill="#030712"/><circle cx="56" cy="51" r="8" fill="#ef4444"/><circle cx="84" cy="51" r="8" fill="#eab308"/><circle cx="112" cy="51" r="8" fill="#22c55e"/><text x="145" y="58" fill="#dbeafe" font-family="Inter,Arial" font-size="18">Simply Business Analytics</text><rect x="36" y="112" width="202" height="120" rx="26" fill="#ffffff" opacity=".055"/><text x="62" y="150" fill="#94a3b8" font-family="Inter,Arial" font-size="16">Cashflow</text><text x="62" y="195" fill="#fff" font-family="Inter,Arial" font-size="38" font-weight="800">+18.4%</text><rect x="262" y="112" width="202" height="120" rx="26" fill="#2563eb" opacity=".18"/><text x="288" y="150" fill="#bfdbfe" font-family="Inter,Arial" font-size="16">AI Risk Score</text><text x="288" y="195" fill="#fff" font-family="Inter,Arial" font-size="38" font-weight="800">98.7%</text><rect x="488" y="112" width="202" height="120" rx="26" fill="#ffffff" opacity=".055"/><text x="514" y="150" fill="#94a3b8" font-family="Inter,Arial" font-size="16">Fraude</text><text x="514" y="195" fill="#fff" font-family="Inter,Arial" font-size="38" font-weight="800">Bajo</text><rect x="36" y="270" width="654" height="170" rx="30" fill="#ffffff" opacity=".045"/><g fill="#2563eb"><rect x="76" y="372" width="44" height="42" rx="12"/><rect x="148" y="330" width="44" height="84" rx="12"/><rect x="220" y="350" width="44" height="64" rx="12"/><rect x="292" y="302" width="44" height="112" rx="12"/><rect x="364" y="318" width="44" height="96" rx="12"/><rect x="436" y="286" width="44" height="128" rx="12"/><rect x="508" y="338" width="44" height="76" rx="12"/><rect x="580" y="306" width="44" height="108" rx="12"/></g><path d="M76 344 C180 260 260 330 356 274 C462 214 532 258 624 210" fill="none" stroke="#93c5fd" stroke-width="6" stroke-linecap="round"/></g><g transform="translate(835 212)" filter="url(#shadow)"><path d="M0 250 C45 70 190 8 288 62 C383 114 366 284 270 376 C175 468 2 416 0 250Z" fill="#1f2937"/><path d="M75 143 C118 91 203 96 243 149 C293 215 251 315 172 323 C92 332 28 210 75 143Z" fill="#c49a76"/><path d="M54 370 C110 310 220 310 291 372 L325 520 H18Z" fill="#0f172a"/></g><g transform="translate(795 555)"><rect width="300" height="72" rx="24" fill="#0b1220" stroke="#1e3a8a" stroke-opacity=".35"/><text x="28" y="31" fill="#fff" font-family="Inter,Arial" font-size="20" font-weight="700">Gastos · Riesgo · AI</text><text x="28" y="55" fill="#94a3b8" font-family="Inter,Arial" font-size="14">Decisiones empresariales en tiempo real.</text></g><rect x="1" y="1" width="1198" height="748" rx="42" fill="none" stroke="#fff" stroke-opacity=".13"/></svg>